<?xml version="1.0" standalone="no"?>
<!DOCTYPE svg PUBLIC "-//W3C//DTD SVG 20010904//EN"
 "http://www.w3.org/TR/2001/REC-SVG-20010904/DTD/svg10.dtd">
<svg version="1.0" xmlns="http://www.w3.org/2000/svg"
 width="1024.000000pt" height="1024.000000pt" viewBox="0 0 1024.000000 1024.000000"
 preserveAspectRatio="xMidYMid meet">
<metadata>
Created by potrace 1.14, written by Peter Selinger 2001-2017
</metadata>
<g transform="translate(0.000000,1024.000000) scale(0.100000,-0.100000)"
fill="#000000" stroke="none">
<path d="M7645 10053 c-27 -3 -58 -11 -67 -20 -19 -17 -18 -55 2 -61 7 -3 10
0 6 6 -11 19 5 40 35 44 41 6 44 -5 7 -32 -30 -22 -30 -24 -24 -81 4 -46 2
-61 -10 -71 -8 -7 -27 -25 -41 -40 -33 -35 -87 -39 -103 -7 -17 31 -2 187 20
209 16 16 15 17 -12 29 -20 9 -58 11 -126 7 -53 -3 -146 -9 -207 -12 -113 -6
-183 -27 -154 -45 11 -7 11 -9 -3 -9 -9 0 -21 7 -26 15 -7 13 -24 15 -88 13
l-79 -3 -3 -192 -2 -192 74 -3 74 -3 -19 -70 c-29 -104 -60 -278 -69 -380 -5
-49 -9 -94 -9 -99 -1 -5 -733 -6 -1821 -2 -1744 7 -1822 8 -1863 26 -23 10
-87 24 -143 31 -105 12 -197 5 -494 -40 -96 -15 -182 -17 -525 -16 l-410 1 -3
100 -3 100 -44 12 c-33 9 -241 12 -780 12 l-735 0 0 -170 0 -170 753 0 752 1
0 -550 c0 -302 3 -553 8 -557 4 -4 7 43 7 104 0 74 4 112 11 112 7 0 11 -59
11 -187 0 -104 2 -793 4 -1533 1 -773 -1 -1336 -6 -1325 -5 13 -9 -30 -9 -118
-1 -78 -5 -136 -10 -133 -5 3 -9 112 -10 242 -1 130 -3 239 -5 243 -2 3 -7
287 -11 631 -4 344 -11 726 -14 850 -4 124 -8 -917 -9 -2313 -1 -1396 -4
-2543 -7 -2548 -4 -5 -294 -9 -736 -9 l-729 0 0 -35 0 -35 735 0 735 0 1 -32
c0 -18 3 -27 6 -20 2 6 8 12 12 12 11 0 12 -50 1 -68 -8 -14 -9 -14 -10 -2 0
13 -88 15 -740 12 -647 -2 -740 -4 -740 -17 0 -13 92 -15 740 -15 668 0 743
-2 766 -16 23 -15 26 -15 43 0 14 13 41 16 143 16 l125 0 6 -40 c6 -46 42 -97
75 -106 31 -9 404 18 646 46 61 7 119 7 180 1 50 -6 145 -13 211 -17 132 -7
156 -2 241 56 44 29 47 30 170 30 112 0 131 -3 177 -24 103 -49 271 -58 417
-22 31 7 69 12 85 10 247 -28 343 -36 525 -44 330 -15 375 -13 355 20 -6 9 -9
9 -16 -1 -12 -19 -34 4 -25 26 5 15 9 15 23 4 15 -13 16 -11 10 17 -6 31 -5
32 40 38 25 3 171 6 324 6 267 0 279 -1 279 -19 0 -18 16 -19 361 -26 326 -7
360 -9 354 -24 -4 -9 -12 -29 -18 -46 -5 -16 -14 -33 -19 -36 -5 -3 -10 -25
-11 -49 -2 -44 -2 -44 38 -51 50 -9 559 8 640 20 96 16 272 15 360 -2 89 -17
175 -14 279 9 77 17 109 31 101 44 -3 5 -1 11 5 15 5 3 10 19 10 35 0 59 1 60
135 60 l122 0 5 -42 c3 -24 18 -62 33 -85 23 -35 35 -43 59 -44 17 0 83 -2
147 -5 101 -4 123 -2 168 16 52 20 116 21 306 5 113 -10 484 -31 530 -30 28 1
78 2 113 3 l63 2 -7 52 c-3 29 -9 67 -14 84 l-8 31 474 -5 474 -5 0 37 0 36
-327 0 c-181 0 -399 3 -485 7 -157 6 -158 6 -158 -15 0 -18 -6 -22 -32 -21
-18 1 -25 3 -15 6 11 3 17 14 17 34 0 18 4 28 10 24 6 -4 10 8 10 28 l0 35 93
6 c50 3 171 8 267 11 96 4 213 10 260 15 47 5 121 10 165 10 44 1 106 4 138 7
l57 6 0 34 c0 29 -3 34 -17 29 -9 -4 -76 -9 -148 -11 -71 -3 -148 -7 -170 -10
-22 -2 -85 -7 -140 -10 -55 -3 -177 -13 -271 -21 -94 -9 -185 -14 -203 -12
l-33 3 -2 943 c-2 518 1 942 6 942 4 0 8 -9 8 -19 0 -11 4 -22 9 -25 5 -3 12
-23 16 -43 6 -36 64 -160 89 -190 82 -102 197 -183 326 -230 76 -29 202 -46
269 -38 66 8 183 49 228 78 31 21 33 25 33 87 l0 65 -20 -29 c-22 -35 -43 -47
-139 -81 -89 -32 -231 -38 -301 -13 -25 8 -62 21 -83 28 -49 15 -181 115 -229
173 -49 59 -72 99 -97 167 -33 92 -34 113 -11 187 27 86 60 238 60 281 0 22
-5 32 -15 32 -16 0 -17 -2 -40 -140 -20 -113 -52 -230 -64 -230 -4 0 -11 24
-14 52 -7 52 12 156 49 280 19 64 18 66 -18 70 -28 3 -34 8 -41 39 -5 20 -22
50 -39 65 l-30 29 3 -30 c1 -16 1 -49 1 -72 -2 -42 -3 -43 -37 -43 -19 0 -35
-4 -35 -10 0 -5 14 -10 30 -10 28 0 30 -2 30 -40 0 -22 -4 -40 -9 -40 -4 0
-20 17 -34 38 -13 21 -65 80 -113 131 -132 138 -256 220 -331 221 -36 0 -44
15 -14 25 10 3 51 43 91 88 40 45 83 86 94 90 28 11 257 22 290 13 25 -6 26
-9 26 -73 0 -118 30 -188 127 -300 46 -54 91 -101 99 -106 19 -11 36 3 75 60
47 68 179 150 303 188 102 31 280 1 389 -66 18 -10 36 -19 40 -19 4 0 7 23 5
52 -3 50 -4 51 -43 65 -22 7 -47 16 -55 20 -8 3 -22 7 -30 8 -8 1 -40 8 -70
15 -93 21 -307 -2 -405 -45 -34 -15 -170 -135 -200 -176 -11 -16 -24 -29 -30
-29 -21 0 -109 122 -136 188 -32 80 -42 188 -19 202 12 7 12 21 1 87 -17 98
-25 253 -14 253 5 0 18 -22 30 -49 32 -76 120 -190 197 -257 130 -111 226
-144 426 -144 96 0 131 5 211 28 133 38 141 44 137 110 l-3 52 -37 -26 c-41
-29 -132 -70 -188 -85 -50 -13 -229 -9 -265 6 -16 7 -43 18 -60 24 -69 28
-169 97 -223 155 -110 118 -198 333 -189 460 7 93 39 230 57 241 4 3 11 17 15
32 20 83 141 233 232 289 127 78 298 118 414 96 66 -12 182 -56 222 -85 l28
-19 -3 53 c-3 51 -5 55 -43 76 -61 33 -191 63 -275 64 -208 1 -421 -95 -540
-243 -40 -49 -87 -133 -116 -207 -7 -16 -11 171 -12 555 -2 533 -5 622 -18
694 l-4 25 15 -25 c8 -14 14 -32 15 -40 0 -35 108 -208 166 -268 48 -50 200
-139 267 -156 185 -50 394 -26 520 58 24 16 27 24 27 74 0 51 -1 54 -17 41
-94 -75 -234 -114 -378 -106 -220 13 -395 140 -499 362 -10 22 -23 47 -27 57
-22 46 -41 197 -35 283 4 50 8 97 9 105 14 71 23 103 43 158 44 117 122 220
211 282 125 86 154 97 280 110 133 14 274 -12 371 -67 l42 -25 0 59 0 58 -83
29 c-165 57 -446 45 -560 -24 -27 -17 -51 -30 -53 -30 -3 0 -22 -12 -42 -27
-73 -57 -143 -137 -185 -214 -23 -43 -44 -79 -47 -79 -3 0 -5 188 -5 417 l0
418 80 38 c110 51 110 52 107 78 -3 31 -28 57 -63 64 -16 4 -29 11 -29 16 0 5
-7 9 -17 9 -9 0 -13 3 -9 7 7 8 81 5 110 -4 14 -4 18 -1 13 10 -3 8 -3 18 1
21 3 4 7 12 8 19 18 99 19 93 -19 110 -19 10 -52 16 -74 16 l-38 -2 40 -8 c31
-6 26 -7 -24 -3 -35 2 -72 4 -82 4 -18 0 -19 11 -19 160 l0 160 495 0 495 0 0
160 0 160 -340 2 c-187 2 -420 3 -517 3 l-178 0 -5 -80 -5 -80 -560 0 -560 -1
-22 25 c-13 13 -23 32 -23 42 0 9 -13 57 -30 104 -33 100 -109 219 -195 310
-31 33 -52 61 -46 63 7 2 11 59 10 170 -1 116 -4 155 -10 127 -4 -22 -9 -71
-10 -110 l-1 -70 -8 51 c-4 29 -15 72 -23 95 -9 24 -18 53 -21 64 -2 11 -2 -8
1 -42 5 -56 4 -62 -13 -61 -14 2 -19 10 -20 32 -1 16 -9 35 -19 42 -17 13 -17
15 8 39 19 20 34 26 59 23 30 -3 33 0 36 25 4 30 11 28 -103 20z m-671 -109
c9 -3 13 -11 9 -17 -3 -5 2 -16 12 -23 17 -13 17 -14 -1 -20 -10 -4 -33 -12
-49 -19 -42 -17 -75 -3 -75 30 0 23 4 25 40 25 31 0 38 3 34 15 -6 16 4 19 30
9z m95 -60 c3 -3 0 -9 -5 -14 -14 -14 -54 -1 -47 16 5 13 37 11 52 -2z m6 -47
c10 -8 14 -17 9 -20 -13 -8 -104 13 -104 24 0 14 74 11 95 -4z m-16 -36 c11
-7 10 -11 -5 -18 -11 -5 -29 -8 -41 -7 -13 0 -23 -3 -23 -7 0 -5 8 -9 18 -9
22 -1 -43 -58 -75 -66 -13 -4 -23 -12 -23 -20 0 -8 -7 -14 -15 -14 -8 0 -15 9
-15 19 0 11 -4 23 -10 26 -25 15 3 93 32 87 9 -2 19 2 23 7 8 13 114 14 134 2z
m778 -695 c86 -31 156 -103 178 -181 22 -79 29 -185 13 -185 -21 0 -39 16 -36
30 2 8 -5 16 -16 18 -16 3 -18 0 -12 -25 4 -15 9 -59 12 -98 8 -106 40 -151
55 -77 5 25 2 35 -17 51 -28 24 -34 81 -8 81 21 0 44 -60 44 -118 0 -57 -24
-88 -62 -79 -132 32 -129 30 -166 101 -47 90 -32 245 26 267 27 10 89 2 110
-14 20 -16 26 0 16 41 -8 31 -13 37 -39 40 -16 1 -50 -3 -74 -10 -39 -12 -48
-20 -70 -63 -20 -41 -25 -65 -26 -130 0 -72 3 -87 33 -143 30 -58 32 -66 21
-97 -11 -30 -10 -36 8 -52 11 -10 26 -33 33 -50 12 -31 11 -35 -25 -78 -20
-25 -50 -52 -67 -61 l-31 -16 6 36 6 36 -77 -5 c-112 -8 -140 -14 -154 -33 -7
-10 -36 -34 -65 -55 -87 -64 -113 -133 -75 -207 22 -44 53 -60 120 -60 28 0
52 -4 52 -9 0 -13 57 -31 96 -31 18 0 36 -5 40 -11 5 -8 32 -10 83 -6 104 7
196 45 275 113 54 48 86 66 86 48 0 -3 -6 -20 -14 -37 -7 -18 -26 -72 -41
-122 -53 -176 -77 -240 -98 -263 -36 -38 -115 -54 -278 -56 -102 -1 -138 -4
-116 -10 44 -11 292 -1 342 14 68 21 108 72 144 183 71 223 111 426 97 501 -3
17 -8 49 -11 71 -4 22 -15 69 -25 105 -11 36 -24 99 -30 140 -6 41 -15 103
-20 136 -6 34 -10 80 -10 102 0 45 -22 111 -52 154 -10 14 -18 29 -18 32 0 3
270 6 600 6 l600 0 -2 -207 -3 -207 -60 -13 c-44 -10 -61 -18 -62 -31 -4 -38
-17 -78 -30 -87 -12 -9 -9 -15 11 -33 15 -12 26 -26 26 -32 0 -5 9 -19 20 -30
24 -24 25 -40 5 -107 -22 -75 -67 -131 -127 -157 -55 -24 -49 -36 15 -36 75 0
136 37 137 82 1 12 65 88 75 88 12 0 4 -949 -9 -1055 -7 -60 -11 -132 -9 -160
7 -88 23 -1519 18 -1542 -10 -41 -20 -24 -22 35 -3 167 -5 203 -18 272 -8 41
-19 107 -25 145 -14 99 -15 104 -23 111 -4 4 -7 20 -7 35 0 25 -61 400 -75
457 -3 12 -7 30 -9 41 -2 10 -10 36 -16 57 -6 22 -19 75 -29 119 -23 98 -69
279 -82 321 -6 21 -20 36 -40 45 -17 6 -36 18 -43 24 -13 14 -201 105 -215
105 -4 0 -19 8 -32 19 -13 10 -58 36 -99 58 -224 120 -274 149 -320 184 -19
15 -61 41 -93 59 l-59 31 -65 -26 c-114 -46 -250 -56 -398 -30 -95 16 -146 38
-204 86 -20 16 -39 29 -44 29 -14 0 -70 43 -109 84 -51 54 -75 110 -83 192 -4
38 -9 72 -11 76 -3 4 5 12 16 18 29 15 72 87 68 113 -2 16 -11 23 -30 25 -32
4 -36 -5 -12 -23 15 -11 15 -14 1 -41 l-16 -29 -1 33 c0 44 -41 122 -79 150
-32 23 -42 50 -60 161 -7 46 -23 85 -53 135 l-43 71 3 115 c3 148 4 149 142
215 153 74 290 113 495 140 163 21 244 19 322 -9z m-5562 -138 c-16 -6 -47
-26 -67 -44 -20 -18 -48 -40 -62 -49 -38 -25 -90 -103 -111 -164 -13 -41 -16
-70 -11 -120 8 -82 50 -213 80 -249 59 -70 76 -110 76 -174 0 -41 7 -78 20
-107 15 -32 20 -65 20 -128 0 -81 1 -86 40 -145 22 -34 40 -65 40 -68 0 -25
116 -40 137 -19 18 18 28 4 63 -83 31 -78 80 -178 135 -277 31 -54 32 -107 5
-191 -11 -34 -20 -69 -20 -76 0 -25 -107 -101 -255 -180 -27 -15 -75 -45 -105
-68 -30 -23 -63 -45 -72 -49 -20 -7 -24 -27 -6 -27 7 0 5 -5 -5 -12 -20 -16
-46 -96 -93 -283 -40 -157 -44 -181 -75 -385 -12 -80 -28 -176 -36 -215 -51
-247 -63 -309 -78 -390 -8 -49 -25 -135 -36 -190 -11 -55 -25 -138 -30 -185
-5 -47 -17 -123 -26 -170 -47 -256 -45 -238 -23 -268 17 -23 19 -33 11 -54
-14 -36 -68 -106 -161 -206 -66 -71 -80 -83 -86 -67 -4 10 -1 189 6 399 9 262
14 985 17 2319 l4 1937 367 -1 c273 0 359 -3 337 -11z m3270 -3641 l0 -3652
-293 0 c-223 0 -296 3 -304 13 -18 21 -65 15 -72 -10 l-7 -23 -9 23 c-12 28
-3 53 16 45 9 -3 14 2 14 16 0 14 -6 21 -19 21 -15 0 -19 11 -25 77 -7 88 -25
163 -50 211 -44 84 -215 133 -396 112 -223 -26 -213 -26 -243 10 -15 17 -27
35 -27 38 0 4 11 20 24 35 28 33 32 47 46 171 6 60 15 96 27 110 30 35 19 86
-23 114 -19 12 -39 33 -44 46 -12 33 -16 200 -8 356 17 314 20 473 9 610 -5
80 -13 222 -16 315 -3 94 -8 220 -10 280 -4 112 -3 113 26 2 15 -55 55 -77
146 -77 69 0 73 1 125 44 46 37 63 62 111 159 48 95 66 122 115 164 64 56 80
93 103 238 35 218 -5 632 -87 912 -15 48 -33 113 -41 143 -13 50 -53 160 -73
199 -4 9 -18 41 -30 71 -40 100 -167 345 -230 445 -14 22 -34 61 -46 86 -12
25 -34 61 -50 80 -16 19 -42 53 -57 75 -33 49 -170 184 -186 184 -6 0 -44 20
-84 44 -94 57 -209 106 -327 140 -170 50 -162 45 -183 105 -21 59 -21 59 37
157 13 22 27 55 31 72 3 18 13 32 21 32 20 0 51 54 70 123 15 52 19 57 44 57
18 0 33 8 44 25 17 25 22 65 8 65 -22 0 -62 -27 -65 -45 -4 -16 -5 -15 -6 5
-1 14 -5 55 -10 93 -4 37 -4 67 0 67 4 0 20 -22 35 -49 33 -62 59 -77 49 -28
-4 17 -14 46 -22 62 -22 44 -169 181 -190 176 -15 -3 -15 -1 -4 13 7 9 16 14
20 12 3 -2 20 4 36 14 38 21 41 48 15 129 -11 35 -20 77 -20 92 0 25 -4 29
-29 29 -44 0 -104 28 -97 46 3 8 -2 32 -11 52 -12 27 -17 32 -20 20 -3 -10 -9
-18 -15 -18 -6 0 -8 10 -5 22 4 12 1 28 -4 34 -6 7 -13 75 -16 151 -2 76 -9
147 -13 158 -5 11 -13 43 -18 70 -5 28 -13 58 -17 68 -7 16 52 17 1161 17
l1169 0 0 -3653z m1285 3635 c0 -10 7 -28 16 -40 9 -13 13 -30 9 -40 -4 -9 -9
-64 -11 -121 -3 -103 -3 -104 34 -175 24 -47 43 -105 57 -176 l22 -105 -25
-37 c-22 -34 -24 -45 -19 -104 8 -83 26 -114 70 -114 39 0 50 -15 88 -127 31
-92 50 -123 124 -195 30 -30 42 -47 30 -43 -19 6 -19 6 -2 -8 11 -9 26 -13 35
-10 10 4 13 2 8 -5 -4 -7 3 -16 18 -23 14 -7 31 -26 37 -43 7 -17 15 -35 17
-41 3 -5 1 -7 -3 -3 -7 7 -105 -99 -105 -114 0 -4 -48 -32 -107 -64 -60 -31
-126 -69 -148 -84 -22 -15 -68 -42 -103 -59 -34 -17 -95 -53 -135 -80 -39 -27
-81 -51 -93 -55 -28 -9 -64 -92 -62 -143 0 -22 -3 -46 -8 -54 -4 -8 -9 -18
-11 -24 -1 -5 -15 -64 -31 -130 -51 -205 -85 -392 -112 -617 -6 -48 -12 -93
-15 -100 -4 -13 -28 -226 -40 -358 -3 -36 -8 -78 -10 -95 -3 -16 -10 -102 -16
-190 -6 -88 -12 -178 -15 -200 -2 -22 -9 -125 -15 -230 -5 -104 -14 -203 -20
-219 -16 -50 -11 -82 16 -100 13 -9 31 -16 40 -16 12 0 15 -7 10 -32 -7 -45
-25 -234 -25 -267 0 -15 20 -60 45 -101 24 -41 45 -86 45 -98 0 -29 60 -92 87
-92 21 0 66 44 77 75 l7 20 16 -20 c8 -11 19 -32 25 -47 5 -15 20 -34 33 -42
28 -18 60 -10 112 30 17 13 36 24 42 24 16 0 13 92 -4 133 -20 49 -19 54 14
62 37 8 78 46 87 79 3 15 0 41 -7 59 -16 39 -96 127 -116 127 -8 0 -13 6 -10
13 2 6 13 11 23 9 10 -1 40 -5 66 -8 27 -4 53 -13 60 -21 9 -11 12 -265 12
-1033 1 -1012 1 -1019 -19 -1022 -33 -5 -32 -56 7 -258 5 -30 19 -69 30 -87
13 -22 18 -46 16 -75 -4 -62 -33 -74 -131 -57 -40 8 -137 13 -217 14 -135 0
-149 -2 -200 -26 -90 -42 -136 -127 -148 -274 l-7 -80 -72 0 c-40 0 -192 2
-338 3 l-265 2 0 3675 0 3675 615 0 c583 0 615 -1 615 -18z m-5278 -334 c-1
-189 -4 -370 -5 -403 -2 -33 -4 121 -5 343 -1 221 1 402 6 402 4 0 6 -154 4
-342z m6515 30 c-3 -8 -6 -5 -6 6 -1 11 2 17 5 13 3 -3 4 -12 1 -19z m78 -366
c-6 -6 -116 46 -125 59 -3 5 -23 16 -45 27 -68 31 -116 64 -112 76 4 11 11 11
88 0 45 -6 46 -5 82 38 23 28 37 56 38 74 0 16 18 -38 40 -120 22 -81 37 -151
34 -154z m1325 290 c0 -13 -12 -22 -22 -16 -10 6 -1 24 13 24 5 0 9 -4 9 -8z
m-1475 -93 c-7 -11 -102 -12 -108 -1 -3 4 22 8 54 9 34 1 57 -2 54 -8z m1385
1 c0 -5 -15 -10 -32 -9 -28 0 -30 2 -13 9 28 12 45 12 45 0z m60 -10 c0 -4
-11 -5 -25 -2 -14 2 -23 8 -20 12 6 10 45 1 45 -10z m-6160 -72 c0 -8 -24 -15
-77 -21 -31 -3 -43 9 -26 27 9 9 103 3 103 -6z m60 -63 c12 -32 45 -35 35 -4
-11 32 16 19 38 -19 19 -32 19 -32 -3 -32 -12 0 -18 -4 -15 -10 3 -5 17 -10
29 -10 18 0 25 -7 30 -31 15 -79 6 -102 -49 -114 -17 -4 -47 -13 -67 -21 -55
-20 -165 -29 -182 -15 -8 7 -12 19 -9 27 3 10 -2 14 -19 14 -13 0 -33 6 -43
14 -15 11 -17 17 -7 28 9 11 7 26 -9 68 -19 51 -20 55 -3 67 16 11 101 40 148
49 10 2 21 6 24 9 3 3 25 5 49 5 37 0 45 -4 53 -25z m-475 -70 c39 -17 64 -41
104 -104 27 -42 31 -54 21 -66 -7 -8 -21 -15 -30 -15 -24 0 -60 -46 -60 -76 0
-19 -9 -26 -50 -38 -28 -8 -62 -24 -76 -35 -19 -15 -31 -18 -43 -11 -65 38
-97 101 -106 210 -8 93 -2 102 90 135 70 24 91 24 150 0z m4132 -41 c8 15 11
15 28 -4 18 -19 18 -22 0 -83 -24 -80 -30 -86 -57 -60 -20 20 -21 26 -11 69 9
38 8 50 -3 61 -16 16 -18 26 -7 37 4 4 15 -3 24 -15 15 -20 17 -20 26 -5z
m797 -115 c-10 -17 -53 -9 -64 10 -5 11 -20 22 -32 24 -15 2 -12 4 7 3 22 -1
33 5 40 21 16 38 39 33 47 -11 4 -21 5 -43 2 -47z m-712 16 c16 -48 15 -55
-14 -55 -15 0 -18 8 -18 50 0 28 4 50 9 50 5 0 15 -20 23 -45z m1056 -6 c-7
-19 -14 -27 -20 -21 -6 6 -5 17 4 31 19 31 29 26 16 -10z m-469 -25 c11 -42
13 -45 25 -29 9 13 15 15 20 7 9 -15 72 -16 81 -2 3 6 17 7 29 4 17 -4 30 1
44 16 24 26 56 23 60 -7 2 -15 -4 -23 -20 -28 -13 -4 -44 -20 -69 -35 -55 -33
-99 -44 -145 -36 -25 5 -34 12 -34 26 0 16 -7 20 -34 20 -21 0 -36 -6 -40 -15
-6 -16 -36 -10 -36 7 0 6 11 23 25 40 14 16 25 38 25 49 0 11 7 19 16 19 11 0
14 -8 12 -25 -2 -13 1 -24 7 -24 5 0 8 13 7 29 -5 47 14 35 27 -16z m-5409 11
c0 -8 -9 -15 -19 -15 -11 0 -22 -6 -24 -12 -3 -8 -6 -6 -6 4 -1 9 7 22 17 27
24 14 32 13 32 -4z m5722 -71 c-2 -13 -9 -24 -14 -24 -5 0 -6 6 -2 13 4 7 3 9
-2 4 -5 -5 -9 -14 -9 -20 0 -16 -87 -60 -94 -48 -4 5 -17 11 -30 12 -20 3 -13
9 35 28 71 29 94 47 94 74 0 20 1 20 13 3 8 -10 12 -29 9 -42z m-5002 7 c0
-18 -6 -31 -16 -35 -25 -10 -27 -1 -9 33 19 39 25 39 25 2z m-360 -2 c0 -5
-19 -9 -42 -8 l-43 0 35 13 c36 13 50 12 50 -5z m726 -4 c23 -35 15 -36 -20
-3 -21 20 -24 28 -12 28 8 0 23 -11 32 -25z m-246 -1 c0 -8 -5 -12 -10 -9 -6
4 -8 11 -5 16 9 14 15 11 15 -7z m214 -20 c23 -22 20 -33 -10 -40 -27 -7 -141
1 -184 13 -22 6 -19 8 25 20 66 17 90 16 106 -3 12 -14 14 -14 21 5 9 25 21
27 42 5z m127 6 c5 0 9 -4 9 -10 0 -5 -11 -10 -25 -10 -16 0 -25 6 -25 16 0
11 5 14 16 10 9 -3 20 -6 25 -6z m4239 -60 c12 -8 11 -10 -7 -10 -13 0 -23 5
-23 10 0 13 11 13 30 0z m-4515 -40 c-11 -5 -33 -8 -50 -8 -29 0 -29 0 -5 8
14 4 36 8 50 8 23 1 23 0 5 -8z m62 -307 c-11 -10 -26 8 -20 23 5 15 7 14 15
-1 6 -9 7 -19 5 -22z m-37 6 c0 -5 -4 -9 -10 -9 -5 0 -10 7 -10 16 0 8 5 12
10 9 6 -3 10 -10 10 -16z m-37 -3 c6 -16 -2 -28 -14 -20 -12 7 -11 34 0 34 5
0 11 -6 14 -14z m4284 -73 c56 -26 64 -27 218 -27 158 1 215 9 283 41 18 9 35
13 38 11 8 -8 -34 -107 -71 -168 -79 -132 -103 -198 -76 -214 11 -7 21 -56 11
-56 -3 0 -17 12 -31 26 -54 59 -130 70 -181 25 -32 -27 -78 -49 -78 -36 0 3 8
23 18 43 23 48 18 66 -48 158 -30 42 -59 84 -65 93 -5 9 -24 36 -41 61 -57 83
-58 81 23 43z m-3941 -408 c74 -30 84 -38 84 -63 0 -24 -44 -111 -62 -123 -5
-3 -15 -33 -22 -65 -8 -32 -25 -104 -39 -159 -111 -438 -138 -784 -88 -1120
12 -82 27 -168 32 -190 6 -22 14 -60 19 -85 5 -25 14 -67 20 -95 6 -27 15 -72
20 -100 15 -84 29 -148 44 -197 l15 -47 -72 -15 c-40 -8 -110 -20 -157 -26
-92 -13 -160 -30 -160 -39 0 -3 4 -12 9 -20 6 -9 11 -10 15 -2 4 6 23 11 42
11 20 0 44 5 54 10 41 22 115 29 155 16 47 -16 53 -27 61 -107 l6 -64 -69 -14
c-94 -20 -163 -16 -188 11 -11 11 -14 18 -7 14 7 -5 12 -1 12 9 0 11 -5 15
-14 12 -20 -8 -28 20 -14 43 16 26 2 38 -17 14 -13 -17 -14 -17 -15 -2 0 11
-18 26 -46 39 -43 21 -50 21 -122 9 -75 -12 -268 -17 -279 -7 -2 3 4 41 15 84
53 204 77 451 76 778 0 187 -3 219 -23 295 -22 80 -35 138 -61 270 -19 96 -32
154 -45 195 -7 22 -25 81 -40 130 -15 50 -38 115 -50 145 -13 30 -28 75 -35
100 -7 27 -26 57 -46 77 -19 17 -34 33 -34 35 0 2 29 25 64 51 l64 47 44 -28
c73 -49 207 -92 330 -106 65 -8 200 20 273 55 100 48 185 146 185 213 0 30 12
32 66 11z m4140 -40 c31 -34 86 -34 129 -1 24 19 35 22 44 13 25 -25 1 -42
-80 -57 -48 -9 -55 -8 -110 21 -33 18 -59 36 -59 40 0 19 54 8 76 -16z m-3872
-85 c22 -8 27 -15 23 -33 -5 -22 -44 -121 -73 -184 -8 -17 -14 -34 -14 -38 0
-8 -138 -215 -170 -255 -11 -14 -23 -40 -26 -57 -10 -52 17 -41 50 20 16 28
38 62 49 75 11 12 31 39 44 60 42 69 163 318 169 350 4 18 11 32 16 32 24 0
136 -69 184 -112 50 -46 168 -196 211 -268 30 -50 206 -377 255 -473 11 -22
32 -78 48 -125 16 -48 47 -136 68 -197 22 -60 45 -141 52 -180 7 -38 18 -95
25 -125 13 -55 23 -110 50 -296 24 -162 20 -341 -10 -470 -32 -134 -67 -187
-118 -178 -55 9 -71 23 -106 87 -19 34 -60 88 -92 120 -39 41 -60 72 -68 100
-6 23 -24 93 -41 154 -16 62 -30 119 -30 127 0 7 -16 63 -35 122 -33 101 -90
306 -120 434 -17 70 -53 186 -71 227 -8 17 -14 40 -14 50 0 11 -9 46 -21 79
-39 111 -50 167 -43 222 4 35 1 58 -7 68 -18 22 -37 0 -44 -54 -11 -89 -27
-132 -55 -152 -15 -11 -33 -32 -39 -47 -14 -35 -103 -92 -196 -126 -61 -22
-83 -29 -140 -42 -5 -2 -27 -6 -49 -10 l-38 -8 5 39 c4 22 9 86 12 144 12 220
26 318 81 585 31 146 38 169 79 265 18 41 38 89 45 107 l12 32 56 -29 c32 -16
70 -34 86 -40z m3952 -251 c2 -90 9 -207 14 -259 5 -52 14 -174 20 -270 6 -96
20 -263 31 -370 18 -184 30 -265 64 -455 22 -119 20 -207 -5 -230 -11 -10 -20
-23 -20 -28 0 -5 -10 -19 -23 -31 -55 -50 -49 -50 -132 -5 -75 41 -77 42 -71
74 7 35 20 157 35 330 10 103 23 395 36 775 4 91 10 253 15 360 6 107 10 217
10 245 0 35 3 46 11 38 7 -7 12 -75 15 -174z m-5212 21 c13 -25 34 -79 46
-120 13 -41 44 -140 71 -220 26 -80 49 -158 52 -175 3 -16 9 -48 12 -70 l7
-40 -26 38 c-49 71 -110 152 -148 196 -21 24 -53 69 -70 100 -18 31 -61 98
-96 149 -43 62 -65 103 -66 125 -1 30 4 34 66 67 37 19 71 38 75 43 9 10 47
-36 77 -93z m-269 -20 c-3 -5 -14 -10 -23 -10 -15 0 -15 2 -2 10 20 13 33 13
25 0z m27 -52 c8 -7 30 -40 48 -72 18 -32 45 -73 60 -90 14 -17 45 -64 69
-103 24 -40 47 -73 51 -73 8 0 143 -199 198 -291 12 -19 35 -87 51 -150 16
-63 32 -122 36 -133 7 -16 5 -17 -16 -11 -13 4 -75 34 -138 67 -163 85 -249
115 -227 80 10 -17 173 -100 286 -147 l85 -34 -1 -208 c0 -114 -6 -246 -13
-293 -7 -47 -19 -132 -27 -190 -15 -102 -77 -382 -95 -428 -5 -13 -9 -36 -9
-52 l0 -30 -118 0 c-142 0 -130 -13 -167 175 -34 170 -46 392 -44 850 2 300
12 621 17 538 1 -13 6 -23 11 -23 11 0 2 77 -11 103 -39 77 -51 -106 -44 -713
3 -256 10 -531 17 -612 9 -110 10 -154 1 -170 -6 -13 -14 -43 -17 -68 -4 -25
-11 -62 -16 -82 -9 -35 -13 -38 -44 -38 -35 0 -180 42 -225 65 -14 7 -55 27
-92 45 -92 43 -100 52 -83 93 7 17 23 101 35 185 12 84 30 203 42 265 11 62
26 148 33 192 15 95 70 375 90 460 8 33 22 118 30 189 9 71 18 132 20 135 1 3
10 47 19 96 21 121 81 358 108 422 18 45 28 56 59 62 3 0 12 -5 21 -11z m1677
-553 c7 -33 21 -89 32 -125 22 -78 44 -215 64 -410 8 -80 26 -237 40 -350 21
-165 25 -229 20 -329 -3 -69 -10 -130 -15 -137 -6 -6 -38 -19 -73 -29 -34 -9
-66 -20 -72 -24 -5 -4 -44 -18 -85 -30 -41 -12 -105 -33 -141 -46 -36 -13 -71
-20 -77 -16 -6 4 -23 52 -37 106 -14 55 -36 134 -49 175 -13 41 -29 107 -35
145 -13 75 -40 208 -71 345 -31 140 -43 235 -44 348 l-1 107 45 6 c55 7 139
28 163 41 10 5 33 6 52 2 31 -5 39 -1 87 45 57 55 71 61 87 34 12 -21 12 -21
17 41 2 26 7 53 13 60 20 24 51 87 51 103 0 33 17 -3 29 -62z m155 -557 c14
-51 30 -107 36 -125 15 -41 56 -189 135 -488 44 -167 46 -149 -16 -142 -30 4
-69 7 -86 7 l-33 0 0 128 c0 110 -19 309 -35 380 -3 13 -15 87 -25 165 -32
229 -23 258 24 75z m5080 -10 c4 -28 3 -48 -2 -48 -12 0 -22 35 -22 80 0 47
16 26 24 -32z m-5645 -749 c19 -55 15 -65 -23 -61 -25 3 -36 10 -40 25 -13 49
-5 61 41 66 6 0 16 -13 22 -30z m11 -108 c14 -36 7 -51 -25 -51 -24 0 -35 17
-35 56 0 37 44 33 60 -5z m-2020 -85 c0 -47 -3 -87 -7 -89 -5 -3 -8 35 -8 84
0 49 3 89 8 89 4 0 7 -38 7 -84z m834 -124 c5 -8 45 -12 133 -12 l126 0 -7
-51 c-4 -28 -9 -79 -12 -112 -3 -34 -10 -86 -16 -115 -21 -114 -30 -351 -34
-937 -2 -335 -4 -614 -4 -619 0 -6 -6 -1 -14 9 -12 17 -16 17 -30 6 -15 -13
-16 -35 -13 -180 5 -172 7 -187 40 -234 15 -22 18 -37 12 -80 -3 -29 -11 -65
-17 -81 -11 -26 -14 -28 -52 -22 -23 4 -110 9 -194 13 -131 5 -161 3 -215 -12
-70 -21 -109 -52 -139 -109 -19 -37 -45 -150 -52 -221 -1 -16 -10 -47 -19 -67
l-16 -38 -144 0 -144 0 -6 377 c-9 480 -9 1995 -1 2057 4 28 12 46 20 46 15 0
81 35 105 56 41 36 39 -13 -4 -97 -23 -46 -37 -64 -52 -64 -11 0 -19 -3 -17
-8 1 -4 2 -11 2 -17 0 -5 6 -10 14 -10 8 0 31 -9 53 -21 58 -31 85 -17 108 58
19 61 51 119 79 142 20 17 20 16 0 -69 -22 -98 -17 -124 23 -128 46 -5 71 12
76 51 4 31 4 31 5 -5 2 -30 6 -38 21 -38 23 0 28 13 40 110 11 81 29 126 62
156 l22 19 -18 -28 c-14 -23 -17 -40 -12 -94 4 -36 14 -86 23 -110 18 -46 42
-55 86 -32 19 10 19 17 13 117 -7 98 -6 106 9 93 20 -17 20 -16 40 114 33 219
47 301 57 334 l12 34 21 -84 c12 -47 26 -90 30 -97z m4102 59 c32 -19 137 -32
151 -18 17 18 44 5 57 -28 9 -20 29 -43 45 -53 33 -19 41 -37 41 -99 0 -51
-14 -62 -44 -34 -23 21 -60 28 -70 12 -3 -4 19 -25 49 -45 64 -45 105 -115
105 -183 0 -37 -4 -44 -30 -58 -17 -9 -34 -13 -39 -11 -5 3 -12 32 -16 63 -8
66 -34 131 -72 181 -23 30 -27 32 -40 19 -14 -14 -13 -18 11 -44 35 -36 59
-84 80 -155 17 -61 21 -98 8 -98 -10 0 -96 143 -112 185 -6 17 -19 38 -27 47
-17 19 -78 25 -88 8 -7 -12 -8 -124 -1 -157 3 -13 1 -25 -3 -28 -5 -2 -11 14
-15 36 -4 23 -25 76 -47 119 -43 83 -44 102 -25 260 14 112 21 118 82 81z
m-4937 -189 c0 -59 -4 -113 -8 -121 -5 -7 -7 41 -5 106 3 131 3 123 8 123 2 0
4 -48 5 -108z m5331 26 c35 -58 24 -102 -32 -125 -19 -9 -30 -9 -42 0 -14 11
-14 16 -1 52 8 22 14 55 15 73 0 25 4 32 20 32 12 0 28 -13 40 -32z m1920 -73
c40 -21 57 -58 64 -140 8 -93 -16 -169 -75 -237 -28 -32 -29 -33 -45 -13 -19
24 -12 135 13 202 18 49 14 114 -11 163 -9 18 -16 35 -16 37 0 9 44 1 70 -12z
m-7110 -48 c0 -37 -6 -48 -39 -81 -41 -40 -51 -36 -51 22 0 25 62 102 82 102
4 0 8 -19 8 -43z m7196 -2 c16 -39 19 -95 4 -95 -5 0 -10 17 -10 38 0 20 -7
49 -14 65 -8 15 -10 27 -5 27 6 0 17 -16 25 -35z m-176 0 c17 -20 17 -83 1
-218 -11 -96 -11 -111 3 -133 30 -45 100 -24 134 39 24 47 42 128 35 158 -3
10 1 26 8 35 7 9 16 36 19 60 l5 44 47 -47 c26 -27 58 -59 71 -73 13 -14 37
-35 53 -47 16 -12 41 -32 57 -43 15 -12 27 -30 27 -40 0 -11 11 -22 30 -29
l30 -10 0 -1073 0 -1072 -36 52 c-50 70 -95 87 -234 87 -58 0 -154 -6 -215
-13 -139 -16 -139 -16 -129 113 3 50 11 93 17 97 5 3 13 50 17 105 4 54 12
113 18 131 10 30 8 34 -22 57 l-32 24 -1 608 c-2 567 -8 773 -34 1015 -12 114
-4 140 51 169 42 23 64 24 80 4z m-6560 -35 c0 -5 -2 -10 -4 -10 -3 0 -8 5
-11 10 -3 6 -1 10 4 10 6 0 11 -4 11 -10z m4422 -41 c25 -47 23 -110 -3 -143
-32 -41 -44 -20 -46 80 -1 48 0 91 3 96 10 16 29 3 46 -33z m-4608 -21 c-4
-24 -11 -51 -15 -60 -5 -9 -9 -37 -9 -61 0 -31 -6 -49 -20 -62 -20 -18 -20
-17 -20 11 0 29 36 189 46 205 14 23 24 5 18 -33z m1446 -137 c0 -16 7 -45 15
-64 8 -20 28 -114 44 -209 62 -374 72 -476 82 -818 4 -151 11 -296 14 -323 5
-33 3 -57 -8 -80 -8 -17 -17 -60 -21 -95 -5 -51 -2 -71 15 -107 17 -37 27 -46
55 -51 43 -8 44 -31 2 -42 -24 -6 -34 -17 -46 -47 -30 -82 -35 -136 -34 -347
l1 -218 -139 0 -138 0 -5 63 c-3 34 -8 118 -11 186 -7 130 -18 194 -41 246 -7
16 -18 57 -23 90 -9 52 -8 62 6 72 9 7 22 17 29 22 7 7 11 44 9 107 -1 86 -3
98 -24 114 -21 17 -22 22 -13 84 5 36 12 69 14 73 3 5 10 98 17 208 6 110 15
236 21 280 5 44 16 159 24 255 20 228 68 500 105 585 22 52 50 61 50 16z
m4400 -126 c0 -11 7 -38 16 -60 8 -22 23 -95 35 -163 11 -68 24 -134 29 -148
6 -14 10 -44 10 -68 0 -23 4 -46 9 -52 10 -9 41 -380 41 -487 0 -34 7 -84 15
-112 11 -34 14 -74 11 -123 -3 -41 -1 -84 4 -98 5 -13 12 -52 16 -86 4 -35 10
-72 14 -83 6 -14 1 -27 -15 -45 -21 -23 -22 -32 -17 -117 4 -79 7 -93 23 -98
39 -13 43 -42 14 -107 -31 -69 -50 -170 -68 -354 l-12 -129 -120 3 c-66 1
-126 5 -132 7 -10 3 -13 42 -13 147 0 156 -13 228 -55 324 -24 54 -25 60 -9
71 9 7 22 14 28 16 7 2 12 41 14 99 4 88 2 98 -18 118 -22 22 -22 25 -10 96 7
43 11 110 8 159 -3 47 -2 85 3 85 12 0 11 37 -1 60 -6 12 -7 28 -1 43 5 13 6
28 1 33 -5 5 -4 50 1 99 5 50 13 135 18 190 5 55 16 152 24 215 73 513 68 482
94 579 l17 65 13 -30 c6 -16 12 -38 13 -49z m-3620 -1447 c0 -8 5 -19 11 -25
8 -8 8 -19 1 -40 l-10 -28 -1 34 c-1 20 -11 48 -26 67 -14 18 -25 37 -25 43 0
5 11 0 25 -13 14 -13 25 -30 25 -38z m-2643 -640 c-1 -90 -3 -17 -3 162 0 179
2 252 3 163 2 -90 2 -236 0 -325z m5480 438 c27 -5 24 -16 -4 -16 -17 0 -37 8
-44 17 -13 15 -11 16 11 9 14 -4 30 -8 37 -10z m-2968 -8 c46 -10 52 -15 61
-47 5 -20 10 -40 10 -45 0 -5 11 -24 25 -42 38 -49 85 -60 173 -40 163 37 363
13 443 -53 41 -34 63 -102 75 -230 l7 -71 -194 5 c-107 3 -291 7 -409 9 -249
5 -325 12 -360 34 -82 54 -136 62 -245 37 -65 -14 -79 -15 -87 -3 -5 7 -7 69
-4 145 7 149 26 226 66 255 60 44 328 72 439 46z m3525 -32 c-4 -18 -12 -26
-28 -25 -16 1 -17 2 -3 6 11 3 17 14 17 36 0 22 3 28 11 20 5 -5 7 -22 3 -37z
m-461 17 c-7 -2 -19 -2 -25 0 -7 3 -2 5 12 5 14 0 19 -2 13 -5z m120 -10 c-7
-2 -19 -2 -25 0 -7 3 -2 5 12 5 14 0 19 -2 13 -5z m-4133 -31 c29 -14 37 -26
52 -75 22 -74 51 -283 44 -313 -5 -19 -13 -24 -39 -24 -17 0 -62 -3 -99 -7
l-68 -6 -1 29 c0 16 -5 38 -10 49 -7 15 -8 9 -4 -21 6 -50 -6 -63 -68 -75 -23
-5 -52 -10 -64 -13 -29 -6 -259 -24 -403 -31 -63 -3 -191 -10 -285 -15 -93 -5
-185 -10 -204 -10 l-34 0 7 78 c7 78 35 179 60 216 7 12 35 32 62 46 42 21 66
25 169 28 66 2 154 -1 195 -8 144 -22 167 -23 176 -9 4 8 11 48 14 89 l5 75
99 7 c54 4 103 9 110 12 25 12 251 -5 286 -22z m4375 -32 c11 -4 -28 -6 -90
-3 -60 3 -112 7 -114 9 -9 8 185 2 204 -6z m-248 -6 c-3 -3 -12 -4 -19 -1 -8
3 -5 6 6 6 11 1 17 -2 13 -5z m333 -24 c8 -5 11 -10 5 -10 -5 0 -17 5 -25 10
-8 5 -10 10 -5 10 6 0 17 -5 25 -10z m1000 -94 c0 -76 4 -98 18 -116 21 -26
26 -26 197 -6 153 19 216 20 284 5 91 -19 152 -115 167 -265 6 -58 5 -61 -21
-78 -26 -17 -49 -18 -372 -11 -189 4 -367 10 -396 14 -47 5 -52 8 -57 36 -11
51 -29 75 -56 75 -32 0 -80 -49 -89 -90 -6 -27 -11 -30 -44 -30 -45 0 -69 16
-90 60 -25 51 -45 59 -76 30 -14 -13 -30 -38 -37 -57 -44 -121 -29 115 21 342
5 22 12 55 16 72 4 18 18 44 32 57 24 24 29 25 206 29 166 4 265 12 276 23 16
15 21 -7 21 -90z m-1458 64 c18 -1 78 3 133 9 90 9 215 7 271 -4 38 -8 72 -53
85 -113 6 -31 18 -79 26 -107 15 -55 18 -318 2 -277 -7 17 -16 22 -46 22 -21
0 -47 -7 -57 -15 -29 -22 -37 -19 -98 35 -31 28 -64 50 -75 50 -10 0 -40 -20
-67 -45 -36 -33 -54 -43 -70 -39 -14 3 -28 -2 -40 -15 -17 -18 -31 -21 -114
-21 -52 0 -182 -5 -289 -11 -110 -6 -250 -8 -320 -4 l-125 7 7 81 c12 146 79
240 192 273 46 13 80 16 168 10 141 -8 193 -14 208 -23 26 -16 74 -11 101 11
37 29 54 117 30 154 -13 20 -14 26 -3 33 7 4 21 3 30 -2 10 -5 32 -9 51 -9z
m-3314 -319 c10 -6 4 -10 -18 -15 -47 -9 -108 -7 -115 3 -10 16 110 27 133 12z
m4282 -181 c0 -20 -5 -30 -15 -30 -16 0 -19 17 -9 44 10 26 24 18 24 -14z
m269 -4 c9 -11 6 -15 -19 -18 -34 -5 -41 -2 -33 18 7 18 37 18 52 0z m-799
-76 c-8 -5 -24 -9 -35 -9 -16 1 -16 2 5 9 35 11 48 11 30 0z"/>
<path d="M7364 8930 c-24 -9 -64 -56 -64 -74 0 -7 -15 -17 -33 -24 -19 -7 -43
-22 -54 -35 -30 -32 -93 -182 -93 -221 0 -39 42 -109 94 -154 62 -54 98 -65
227 -67 64 -1 121 -5 127 -9 15 -9 112 4 112 15 0 5 -21 9 -47 9 -73 0 -81 12
-33 44 51 33 60 56 69 180 6 74 12 102 25 111 27 20 19 37 -16 33 l-33 -3 -6
-95 c-3 -52 -12 -111 -20 -130 -19 -48 -85 -108 -126 -116 -148 -28 -322 76
-323 192 0 69 52 169 107 205 40 27 143 26 200 -2 55 -26 75 -64 81 -151 8
-119 -38 -179 -152 -194 -52 -8 -52 -24 -1 -24 56 0 107 27 140 73 28 39 30
48 30 135 0 92 0 92 25 92 24 0 80 49 80 70 0 16 -29 31 -65 32 -29 1 -42 -4
-55 -22 l-18 -24 -40 27 c-22 16 -65 33 -101 39 -33 6 -61 14 -61 18 0 9 56
40 73 40 8 0 22 -11 30 -24 43 -65 72 -73 64 -18 -11 66 -76 99 -143 72z"/>
<path d="M7678 8923 c-27 -4 -41 -33 -17 -33 7 0 18 -8 25 -17 8 -10 14 -13
14 -6 0 7 17 15 38 19 37 7 55 21 46 36 -5 8 -56 8 -106 1z"/>
<path d="M7355 8667 c-22 -22 -35 -45 -35 -61 0 -34 41 -76 75 -76 35 0 75 42
75 78 0 22 -7 31 -32 43 -18 8 -33 19 -33 26 0 27 -16 24 -50 -10z m71 -46
c-4 -5 -13 -8 -22 -4 -11 4 -12 8 -3 20 14 16 36 2 25 -16z"/>
<path d="M8827 8542 c-10 -10 -17 -28 -17 -40 0 -11 -5 -33 -10 -48 -10 -24
-14 -26 -51 -20 -23 4 -51 13 -62 21 -25 17 -15 20 15 4 16 -9 19 -8 16 3 -3
7 -22 19 -43 26 -22 7 -42 18 -46 23 -4 7 -31 9 -75 4 -122 -11 -158 -26 -189
-80 -43 -72 -25 -168 33 -181 15 -3 34 -8 42 -12 8 -3 57 -8 108 -12 84 -5 96
-8 113 -30 22 -29 22 -91 0 -98 -10 -3 -12 0 -8 11 8 22 -36 73 -68 79 -14 3
-25 1 -25 -3 0 -5 -8 -9 -17 -9 -15 0 -16 -2 -3 -10 11 -7 7 -10 -17 -10 -17
0 -33 5 -35 11 -5 16 -138 0 -145 -18 -10 -25 15 -63 40 -63 29 0 54 -19 59
-45 3 -18 16 -21 107 -31 109 -12 134 -9 220 25 78 32 130 71 139 106 6 22 15
31 34 33 44 5 47 18 32 132 -13 105 -11 137 10 153 7 6 4 7 -6 3 -13 -4 -18 0
-18 13 0 25 -65 81 -94 81 -13 0 -30 -8 -39 -18z m-217 -52 c13 -8 12 -10 -2
-10 -10 0 -18 -4 -18 -10 0 -5 -7 -10 -15 -10 -18 0 -19 12 -3 28 14 14 19 15
38 2z m335 -151 c14 -95 9 -123 -18 -101 -19 17 -32 183 -15 193 7 4 14 7 16
5 1 -2 9 -46 17 -97z m-386 77 c6 -8 10 -20 9 -27 -2 -9 13 -16 42 -20 87 -14
98 -12 105 21 6 29 8 30 65 30 l58 0 7 -117 c7 -105 6 -121 -11 -152 -25 -46
-48 -54 -33 -11 14 38 5 90 -22 124 -23 29 -94 63 -150 72 -21 4 -36 10 -33
15 3 5 -7 4 -22 -3 l-27 -13 24 -7 24 -7 -25 2 c-22 2 -25 7 -23 35 1 27 -1
31 -13 21 -8 -6 -14 -18 -14 -26 0 -8 -6 -13 -12 -10 -8 2 -12 18 -11 37 2 46
37 66 62 36z m59 -274 c5 -32 -27 -26 -39 6 -8 20 -6 23 14 20 14 -2 23 -11
25 -26z m105 3 c-8 -22 -22 -18 -16 5 3 11 9 17 14 15 4 -3 6 -12 2 -20z
m-133 -50 c0 -3 -9 0 -20 7 -11 7 -20 19 -20 27 0 11 6 9 20 -7 11 -12 20 -24
20 -27z m200 1 c0 -3 -4 -8 -10 -11 -5 -3 -10 -1 -10 4 0 6 5 11 10 11 6 0 10
-2 10 -4z"/>
<path d="M7535 8450 c-3 -5 -2 -10 4 -10 5 0 13 5 16 10 3 6 2 10 -4 10 -5 0
-13 -4 -16 -10z"/>
<path d="M8615 8200 c3 -5 8 -10 11 -10 2 0 4 5 4 10 0 6 -5 10 -11 10 -5 0
-7 -4 -4 -10z"/>
<path d="M7483 7593 c9 -2 23 -2 30 0 6 3 -1 5 -18 5 -16 0 -22 -2 -12 -5z"/>
<path d="M7045 7898 c9 -40 60 -132 88 -159 32 -29 44 -23 16 9 -39 43 -64 84
-83 135 -20 54 -31 62 -21 15z"/>
<path d="M2305 6780 c-3 -5 1 -10 9 -10 8 0 18 5 21 10 3 6 -1 10 -9 10 -8 0
-18 -4 -21 -10z"/>
<path d="M7566 1725 c-3 -9 0 -15 9 -15 9 0 12 6 9 15 -4 8 -7 15 -9 15 -2 0
-5 -7 -9 -15z"/>
<path d="M9374 10001 c-34 -15 -62 -57 -57 -85 7 -37 50 -74 97 -86 73 -19
139 -45 143 -56 2 -7 -24 -2 -66 11 -38 13 -84 26 -103 30 -31 7 -32 6 -17
-10 9 -9 35 -19 57 -22 23 -3 40 -9 37 -13 -3 -4 17 -10 44 -14 61 -8 66 -14
39 -43 -32 -34 -114 -33 -168 3 -36 24 -41 25 -55 10 -9 -9 -20 -14 -25 -11
-5 3 -9 -3 -10 -12 -2 -54 -6 -73 -12 -73 -5 0 -8 14 -8 30 0 21 -5 30 -16 30
-12 0 -15 -7 -10 -27 4 -21 0 -18 -14 12 -22 48 -24 59 -8 49 6 -4 0 8 -14 27
-26 33 -63 117 -88 193 -10 32 -10 40 1 47 9 5 -14 9 -58 9 -40 0 -72 -3 -71
-7 1 -5 -3 -18 -10 -30 -11 -19 -10 -22 3 -17 8 4 15 1 15 -5 0 -6 -4 -11 -10
-11 -5 0 -10 -6 -10 -14 0 -8 -7 -17 -16 -20 -9 -3 -14 -12 -11 -19 2 -6 0
-20 -5 -29 -6 -12 -5 -18 2 -18 7 0 7 -8 -2 -22 -6 -13 -11 -33 -9 -45 6 -52
-20 -24 -68 73 -28 58 -51 109 -51 114 0 23 -49 41 -101 38 l-52 -3 -37 -61
c-66 -108 -130 -244 -130 -275 0 -67 72 -48 102 26 34 86 24 80 138 80 l103 0
21 -60 c28 -82 31 -85 76 -85 40 0 61 14 35 24 -9 3 -12 12 -8 22 6 15 7 15
20 -1 7 -10 16 -15 20 -12 4 4 1 13 -5 19 -18 18 -16 118 3 118 8 0 12 6 9 14
-3 8 -1 17 5 21 6 3 11 25 12 48 1 41 1 41 12 15 6 -16 16 -28 23 -28 17 0 27
-62 12 -72 -7 -4 -19 -6 -25 -3 -7 2 -13 -3 -13 -11 0 -11 5 -14 18 -9 32 12
36 10 50 -35 8 -25 21 -59 28 -77 l13 -32 133 -2 c233 -4 284 -2 314 12 61 30
77 134 29 191 -35 42 -45 47 -126 68 -38 10 -75 25 -83 33 -14 13 -12 16 12
23 49 13 63 14 80 5 9 -5 36 -12 58 -16 40 -6 41 -6 37 19 -9 46 -36 59 -126
63 -45 2 -92 -1 -103 -6z m-610 -123 c24 -33 20 -38 -29 -38 -25 0 -45 2 -45
4 0 8 45 56 52 56 4 0 14 -10 22 -22z"/>
<path d="M685 9984 c-59 -23 -88 -27 -79 -13 4 8 3 9 -5 5 -6 -4 -9 -11 -6
-16 3 -4 -4 -10 -15 -13 -20 -5 -44 -51 -37 -71 2 -6 -2 -17 -10 -24 -18 -19
-16 -48 10 -120 17 -47 32 -68 58 -85 55 -37 111 -51 174 -43 81 9 126 37 175
105 55 79 15 241 -68 271 -28 10 -36 10 -44 -1 -7 -11 -11 -11 -15 -1 -2 6 -9
10 -14 6 -5 -3 -9 0 -9 5 0 16 -68 12 -115 -5z m159 -94 c29 -29 33 -116 7
-158 -38 -59 -120 -71 -172 -24 -62 56 -48 180 24 201 44 14 118 3 141 -19z"/>
<path d="M6492 9986 c-22 -11 -22 -12 -20 -196 l3 -185 40 0 40 0 3 88 3 87
53 0 c92 0 133 58 103 146 -12 32 -22 42 -58 56 -50 19 -133 21 -167 4z m138
-66 c11 -7 4 -10 -27 -10 -24 0 -43 5 -43 10 0 13 50 13 70 0z m20 -48 c0 -19
-27 -42 -57 -48 -32 -6 -33 -5 -33 25 0 30 1 31 45 31 25 0 45 -4 45 -8z"/>
<path d="M8185 9980 c-4 -11 -11 -18 -16 -15 -5 4 -9 -66 -9 -174 l0 -181 55
0 55 0 0 75 0 75 74 0 c41 0 86 4 99 9 22 8 59 68 56 88 -1 4 -1 20 0 35 1 21
5 26 18 21 11 -4 14 -3 9 5 -4 7 -14 12 -22 12 -8 0 -14 9 -14 20 0 33 -108
67 -125 40 -3 -5 -26 -10 -50 -10 -24 0 -47 5 -50 10 -3 6 -21 10 -40 10 -25
0 -35 -5 -40 -20z m207 -22 c-7 -7 -12 -8 -12 -2 0 14 12 26 19 19 2 -3 -1
-11 -7 -17z m-57 2 c-3 -5 -15 -10 -25 -10 -10 0 -22 5 -25 10 -4 6 7 10 25
10 18 0 29 -4 25 -10z m67 -42 c-7 -7 -12 -8 -12 -2 0 14 12 26 19 19 2 -3 -1
-11 -7 -17z m-15 -19 c34 -13 38 -30 12 -50 -37 -27 -87 -34 -110 -13 -28 25
-24 58 9 71 26 10 44 9 89 -8z m-172 1 c-3 -5 -13 -10 -21 -10 -8 0 -14 5 -14
10 0 6 9 10 21 10 11 0 17 -4 14 -10z"/>
<path d="M9218 9993 c18 -2 45 -2 60 0 15 2 0 4 -33 4 -33 0 -45 -2 -27 -4z"/>
<path d="M10092 9987 c-13 -7 -32 -27 -42 -45 -19 -31 -19 -32 -1 -75 16 -37
27 -47 71 -66 43 -18 49 -25 40 -37 -7 -8 -19 -14 -26 -14 -8 0 -14 -4 -14 -9
0 -6 -15 -11 -32 -13 -38 -3 -43 -18 -33 -84 l6 -44 90 0 89 0 0 39 c0 34 -3
38 -20 34 -33 -9 -66 5 -78 32 -7 15 -8 25 -2 25 6 0 10 -6 10 -14 0 -16 21
-26 56 -26 21 0 24 5 24 34 0 28 -4 35 -25 40 -15 4 -23 11 -19 17 3 6 17 8
30 5 20 -5 24 -3 24 14 0 12 -4 19 -9 16 -5 -3 -15 2 -22 11 -12 14 -11 15 9
9 18 -6 22 -4 22 16 0 16 -3 19 -9 10 -7 -12 -24 -11 -83 5 -23 6 -24 49 -2
57 24 9 62 7 69 -4 3 -5 1 -19 -5 -30 -6 -11 -7 -20 -2 -20 11 0 32 45 32 69
0 12 -7 17 -21 17 -12 -1 -24 5 -26 12 -4 9 2 11 21 6 16 -4 26 -2 26 5 0 6
-8 11 -19 11 -10 0 -38 2 -62 5 -27 3 -53 0 -67 -8z m117 -263 c2 -2 2 -7 -2
-10 -8 -9 -47 6 -47 17 0 9 37 3 49 -7z"/>
<path d="M0 9941 c0 -34 4 -51 13 -51 6 0 23 -12 37 -27 18 -19 20 -25 8 -20
-12 4 -18 2 -18 -8 0 -7 12 -15 27 -17 39 -4 42 -28 3 -28 -41 0 -58 -18 -53
-57 3 -17 0 -34 -6 -37 -10 -6 -17 -96 -7 -96 1 0 18 5 37 11 46 16 67 35 74
70 4 16 11 29 16 29 5 0 8 24 8 53 -2 48 -2 50 -9 17 -4 -21 -8 -27 -10 -15
-1 11 -5 46 -9 78 -7 53 -6 58 11 54 13 -4 18 1 18 18 0 41 -31 67 -88 73
l-52 5 0 -52z"/>
<path d="M218 9983 l-28 -4 0 -180 0 -179 50 0 50 0 0 75 0 75 81 0 c75 0 83
2 101 25 11 14 24 23 29 20 5 -4 9 -1 9 4 0 6 -4 11 -9 11 -5 0 -4 16 2 37 9
28 9 37 -1 41 -7 2 -9 8 -6 14 8 13 -23 36 -66 47 -40 12 -172 20 -212 14z
m166 -89 c23 -9 19 -31 -6 -38 -46 -12 -78 -7 -78 12 0 10 3 22 7 25 8 9 56 9
77 1z"/>
<path d="M1000 9806 c0 -201 -2 -196 61 -196 l29 0 0 75 0 75 48 0 c26 -1 58
-7 72 -15 14 -8 20 -14 13 -15 -15 0 -6 -66 13 -97 19 -30 59 -30 75 -2 16 30
6 115 -17 140 -15 16 -16 22 -5 29 15 8 19 95 8 140 -9 35 -69 50 -197 50
l-100 0 0 -184z m191 104 c22 -12 25 -52 5 -69 -8 -7 -34 -11 -58 -9 -43 3
-43 3 -46 46 l-3 42 41 0 c23 0 50 -5 61 -10z"/>
<path d="M1357 9983 c-4 -3 -7 -46 -7 -94 0 -66 3 -88 14 -92 12 -5 14 2 10
37 -5 37 -3 44 15 49 18 4 20 0 23 -42 2 -28 5 -8 8 52 l5 97 -31 0 c-17 0
-34 -3 -37 -7z"/>
<path d="M1467 9983 c-4 -3 -7 -19 -7 -34 0 -25 4 -28 38 -31 l37 -3 5 -150 5
-150 48 -3 47 -3 0 151 c0 168 -3 162 76 164 40 1 44 3 44 27 0 15 -7 30 -16
33 -21 8 -269 8 -277 -1z"/>
<path d="M1786 9983 c-16 -4 -18 -12 -12 -56 3 -29 6 -112 6 -184 l0 -133 40
0 40 0 0 190 0 190 -27 -1 c-16 -1 -36 -3 -47 -6z m1 -35 c-3 -8 -6 -5 -6 6
-1 11 2 17 5 13 3 -3 4 -12 1 -19z"/>
<path d="M1878 9960 c-4 -28 -3 -30 29 -30 52 0 62 -16 56 -91 -3 -35 -11 -67
-17 -71 -8 -5 -7 -8 2 -8 7 0 12 -13 12 -31 0 -17 -4 -28 -10 -24 -5 3 -10 2
-10 -4 0 -5 6 -12 13 -15 10 -5 10 -7 0 -12 -7 -3 -13 -18 -13 -34 0 -25 4
-28 46 -33 51 -5 87 1 78 14 -3 5 -10 7 -15 4 -5 -4 -9 22 -8 62 l0 68 15 -55
c17 -63 38 -94 28 -40 l-7 35 55 -47 c34 -29 66 -48 81 -48 22 0 24 4 26 52 2
60 5 66 25 48 9 -6 21 -10 27 -8 7 2 -4 14 -24 26 l-37 21 0 -44 c0 -55 -12
-57 -35 -8 -13 26 -16 50 -12 84 5 42 3 50 -13 59 -18 10 -20 7 -21 -22 -1
-18 -5 -46 -10 -63 l-8 -30 3 33 c2 29 0 33 -17 28 -11 -3 -32 4 -48 16 -26
20 -29 28 -29 79 0 32 5 61 10 64 6 3 10 17 10 31 0 23 -3 24 -69 24 -47 0
-71 -4 -74 -12 -3 -10 -7 -10 -19 0 -13 11 -16 8 -20 -18z m182 -190 c0 -5 -5
-10 -11 -10 -5 0 -7 5 -4 10 3 6 8 10 11 10 2 0 4 -4 4 -10z"/>
<path d="M2133 9969 c-47 -23 -55 -47 -22 -67 15 -9 18 -17 10 -25 -6 -8 -6
-18 -1 -27 8 -12 10 -12 10 3 0 14 5 17 20 12 13 -4 25 1 37 16 10 12 28 33
41 47 25 29 26 34 10 50 -18 18 -58 15 -105 -9z"/>
<path d="M4330 9980 c-74 -18 -97 -125 -32 -152 15 -7 38 -19 52 -29 14 -9 38
-19 54 -23 16 -4 42 -21 59 -38 30 -29 30 -31 12 -44 -10 -8 -36 -14 -58 -14
-30 0 -45 7 -67 30 -19 21 -37 30 -59 30 -29 0 -31 -2 -31 -40 0 -62 24 -79
131 -93 87 -11 92 -10 135 12 49 26 60 49 51 112 -5 35 -37 78 -59 79 -4 0
-31 11 -60 24 -29 13 -63 27 -76 31 -35 10 -26 49 12 53 44 5 76 -6 76 -27 0
-15 9 -20 43 -24 45 -4 67 10 67 45 0 57 -136 95 -250 68z"/>
<path d="M4599 9973 c-10 -11 -8 -15 8 -19 17 -5 21 -16 26 -76 3 -39 3 -115
0 -169 l-6 -99 126 0 c111 0 126 2 130 18 4 16 5 16 6 0 2 -38 122 -34 159 5
32 34 54 96 48 132 -10 50 -62 122 -99 135 -31 12 -32 12 -9 22 16 8 29 8 46
0 35 -15 68 -4 64 22 -5 31 -70 47 -127 30 -24 -7 -51 -20 -59 -27 -24 -25 -5
-74 49 -125 34 -32 49 -54 49 -72 0 -43 -34 -54 -137 -45 -48 4 -100 7 -115 6
-29 -1 -34 11 -22 43 4 10 11 13 18 8 6 -5 33 -7 60 -4 48 4 48 5 42 34 -3 17
-6 37 -6 44 0 11 -17 14 -65 14 -62 0 -65 1 -65 24 0 29 16 36 86 36 47 0 59
4 80 27 22 24 23 28 8 36 -9 5 -77 11 -150 12 -106 2 -136 0 -145 -12z"/>
<path d="M5220 9980 c-53 -5 -56 -8 -51 -40 0 -5 11 -10 22 -10 18 0 20 -4 15
-27 -3 -16 -9 -88 -12 -160 l-7 -133 56 0 57 0 0 74 0 73 96 5 c85 5 99 8 121
30 44 44 41 153 -5 174 -23 11 -224 20 -292 14z m90 -106 c0 -13 -4 -24 -10
-24 -5 0 -10 14 -10 31 0 17 4 28 10 24 6 -3 10 -17 10 -31z m131 26 c20 -11
26 -40 8 -40 -5 0 -7 -4 -4 -10 7 -11 -35 -24 -62 -18 -10 2 -17 10 -15 16 1
7 -9 12 -23 12 -29 0 -31 7 -8 32 18 20 73 24 104 8z"/>
<path d="M5770 9801 l0 -191 40 0 39 0 3 73 3 72 89 6 c81 6 92 9 113 33 18
22 23 39 23 85 0 49 -4 61 -26 82 -24 22 -34 24 -155 28 l-129 3 0 -191z m214
86 c19 -9 19 -10 1 -23 -31 -23 -73 -18 -78 9 l-4 22 -8 -22 c-9 -28 -45 -31
-45 -5 0 10 5 23 11 29 12 12 94 6 123 -10z"/>
<path d="M6132 9838 c3 -131 6 -157 23 -182 24 -35 71 -56 128 -56 64 0 99 16
127 57 23 34 25 46 29 185 l3 148 -46 0 -46 0 0 -139 c0 -139 0 -140 -26 -160
-32 -25 -57 -27 -78 -5 -13 13 -16 42 -16 160 l0 144 -51 0 -51 0 4 -152z"/>
<path d="M7859 9982 c-34 -4 -39 -27 -39 -191 l0 -126 46 -29 c45 -28 47 -29
155 -24 61 3 113 8 116 12 3 3 1 17 -5 31 -11 24 -14 25 -122 25 -110 0 -111
0 -108 23 3 19 8 21 38 18 40 -4 47 -4 114 -2 54 1 56 14 3 16 -17 0 -60 2
-95 3 -86 3 -71 22 18 22 38 0 72 5 75 10 3 6 -1 10 -10 10 -30 0 -9 25 23 28
18 2 32 8 32 13 0 6 -38 9 -97 7 l-98 -3 0 45 0 45 97 0 c92 0 137 12 109 29
-6 4 -11 15 -11 24 0 15 -13 17 -108 17 -59 1 -119 -1 -133 -3z"/>
<path d="M9690 9983 c-63 -5 -79 -15 -60 -38 8 -9 29 -15 59 -15 81 0 83 -4
79 -172 l-3 -147 31 -6 c62 -11 63 -9 66 163 l3 157 67 5 c55 4 68 2 71 -10 3
-8 4 3 3 25 l-2 40 -129 1 c-72 0 -155 -1 -185 -3z"/>
<path d="M9726 9889 c-8 -37 -12 -229 -5 -229 6 0 18 241 13 249 -2 2 -5 -7
-8 -20z"/>
<path d="M8555 9871 c-3 -5 -1 -12 5 -16 5 -3 10 1 10 9 0 18 -6 21 -15 7z"/>
<path d="M8911 9850 c0 -8 4 -22 9 -30 12 -18 12 -2 0 25 -6 13 -9 15 -9 5z"/>
<path d="M1892 9830 c0 -14 2 -19 5 -12 2 6 2 18 0 25 -3 6 -5 1 -5 -13z"/>
<path d="M2081 9823 c7 -12 15 -20 18 -17 3 2 -3 12 -13 22 -17 16 -18 16 -5
-5z"/>
<path d="M9048 9834 c-5 -4 -8 -16 -8 -28 0 -14 3 -17 11 -9 6 6 9 19 7 28 -1
9 -6 13 -10 9z"/>
<path d="M8513 9808 c-27 -13 -30 -28 -5 -28 9 0 23 9 30 20 14 22 8 24 -25 8z"/>
<path d="M1894 9695 c0 -49 1 -71 3 -48 2 23 2 64 0 90 -2 26 -3 8 -3 -42z"/>
<path d="M10197 8823 c-20 -16 -44 -43 -54 -60 -12 -24 -25 -33 -43 -33 -14 0
-51 -7 -84 -14 -50 -12 -63 -12 -92 0 -40 17 -127 18 -156 3 -14 -8 -23 -8
-31 0 -6 6 -21 11 -33 11 -27 0 -94 -27 -94 -39 0 -4 -24 -33 -54 -64 -29 -31
-51 -59 -47 -62 3 -3 0 -9 -6 -13 -10 -6 -25 -81 -24 -125 0 -27 38 -70 77
-88 20 -9 54 -38 76 -65 30 -37 53 -53 92 -66 59 -20 152 -23 182 -5 83 47
167 177 167 257 0 22 -10 64 -23 94 -24 60 -21 85 10 93 24 6 25 11 3 35 -13
14 -13 18 -2 18 20 0 40 -15 42 -31 2 -8 6 -19 10 -26 4 -6 7 -42 8 -80 0 -79
17 -129 76 -233 l43 -75 0 298 c0 163 -2 297 -3 297 -2 0 -20 -12 -40 -27z"/>
<path d="M12 8292 c-16 -5 -16 -99 1 -103 6 -2 144 -3 305 -1 l292 3 0 49 0
50 -152 1 c-84 0 -216 1 -293 3 -78 1 -146 1 -153 -2z"/>
<path d="M1507 7746 c-5 -15 -6 -31 -3 -34 8 -8 18 25 14 45 -3 13 -6 10 -11
-11z"/>
<path d="M0 7595 l0 -55 648 -2 c609 -3 792 -2 798 5 1 1 6 26 10 55 l7 52
-732 0 -731 0 0 -55z m1373 -2 c-7 -2 -19 -2 -25 0 -7 3 -2 5 12 5 14 0 19 -2
13 -5z m49 -5 c-9 -9 -15 -9 -24 0 -9 9 -7 12 12 12 19 0 21 -3 12 -12z"/>
<path d="M10214 7408 c-12 -12 -36 -45 -52 -72 -27 -42 -30 -54 -25 -99 l6
-50 -21 21 c-30 30 -39 28 -52 -12 -6 -19 -17 -37 -24 -39 -8 -3 -51 31 -102
79 -100 97 -137 113 -212 94 -52 -13 -94 -33 -110 -53 -8 -9 -12 -73 -12 -195
-1 -160 1 -185 18 -219 37 -70 131 -122 237 -130 62 -5 80 -2 119 16 65 32
133 112 189 222 58 114 68 169 65 334 l-3 127 -21 -24z m-74 -245 c0 -8 -12
-13 -30 -13 -22 0 -28 4 -24 15 7 18 54 16 54 -2z"/>
<path d="M23 7003 c-21 -4 -23 -10 -23 -59 l0 -54 704 0 c784 0 716 -7 716 70
l0 38 -137 5 c-174 5 -1230 5 -1260 0z"/>
<path d="M0 6320 l0 -60 288 -1 c158 -1 447 -2 642 -3 436 -4 480 -1 480 25 0
18 -12 19 -312 21 l-313 3 315 5 314 5 2 33 2 32 -709 0 -709 0 0 -60z"/>
<path d="M30 5718 c0 -21 0 -21 -15 -2 -13 17 -14 15 -14 -31 l1 -50 13 30 14
30 1 -26 c0 -15 -7 -32 -15 -39 -27 -22 -16 -30 40 -30 48 0 57 3 64 22 l8 22
5 -22 c6 -21 11 -22 97 -19 74 3 94 7 105 22 12 17 13 17 18 -3 5 -18 13 -20
79 -20 46 0 82 5 95 13 12 8 25 10 30 5 5 -4 89 -11 186 -14 l178 -6 16 25
c13 20 15 35 8 68 -8 38 -12 42 -42 45 -18 2 -40 -2 -48 -9 -11 -9 -17 -9 -29
1 -21 18 -65 -2 -65 -30 0 -22 20 -26 38 -8 19 19 14 -4 -7 -31 l-19 -24 -28
44 c-36 56 -41 59 -85 57 -35 -1 -38 -3 -52 -52 -9 -28 -15 -40 -14 -26 1 34
-21 71 -41 69 -9 -1 -26 2 -36 6 -14 6 -23 3 -33 -11 -13 -18 -15 -18 -24 -1
-13 22 -91 24 -109 2 -7 -9 -16 -12 -19 -7 -6 11 -64 16 -148 13 -51 -1 -53
-2 -53 -28 -1 -26 -1 -27 -12 -8 -26 48 -88 64 -88 23z m893 -25 c8 -7 -11
-33 -24 -33 -5 0 -9 9 -9 20 0 19 20 27 33 13z m-473 -13 c0 -5 -2 -10 -4 -10
-3 0 -8 5 -11 10 -3 6 -1 10 4 10 6 0 11 -4 11 -10z m50 -20 c0 -20 -5 -30
-15 -30 -18 0 -20 31 -3 48 17 17 18 16 18 -18z m-310 -5 c0 -14 -4 -25 -10
-25 -5 0 -10 11 -10 25 0 14 5 25 10 25 6 0 10 -11 10 -25z m197 3 c-3 -8 -6
-5 -6 6 -1 11 2 17 5 13 3 -3 4 -12 1 -19z m293 12 c0 -5 -6 -10 -14 -10 -8 0
-18 5 -21 10 -3 6 3 10 14 10 12 0 21 -4 21 -10z m-380 -34 c0 -3 -4 -8 -10
-11 -5 -3 -10 -1 -10 4 0 6 5 11 10 11 6 0 10 -2 10 -4z"/>
<path d="M10175 5483 c-82 -115 -91 -120 -169 -97 -46 14 -71 29 -101 62 -34
36 -48 44 -98 52 -79 13 -113 4 -159 -42 l-38 -38 0 -180 c0 -144 3 -188 16
-218 10 -24 18 -32 21 -22 2 8 7 21 9 29 3 10 15 5 42 -21 95 -91 294 -101
372 -19 100 105 120 134 120 174 0 14 6 30 14 36 20 17 38 160 34 272 l-3 96
-60 -84z m-111 -185 c9 -12 16 -28 16 -35 0 -21 -31 -43 -62 -43 -27 0 -30 3
-24 23 3 12 6 34 6 50 0 22 4 27 24 27 14 0 32 -10 40 -22z"/>
<path d="M0 5035 l0 -55 695 -1 c382 -1 701 -2 708 -3 8 -1 12 16 12 54 l0 55
-707 3 -708 2 0 -55z"/>
<path d="M9838 4873 c12 -2 30 -2 40 0 9 3 -1 5 -23 4 -22 0 -30 -2 -17 -4z"/>
<path d="M800 4470 c-12 -23 -13 -23 -181 -17 -109 4 -175 11 -188 19 -16 10
-23 10 -33 0 -8 -8 -59 -12 -174 -12 -89 0 -176 -3 -193 -6 -30 -6 -31 -8 -31
-63 l0 -56 37 0 c342 -4 353 -4 353 -24 0 -30 11 -51 26 -51 9 0 14 12 14 35
l0 35 198 2 197 3 3 69 c3 75 -9 102 -28 66z m-765 -50 c3 -5 2 -10 -4 -10 -5
0 -13 5 -16 10 -3 6 -2 10 4 10 5 0 13 -4 16 -10z m353 -12 c-6 -18 -310 -18
-315 0 -4 9 32 12 157 12 125 0 161 -3 158 -12z m191 -4 c2 -2 -30 -4 -73 -4
-47 0 -75 4 -71 10 5 8 133 3 144 -6z m199 -11 c-10 -2 -26 -2 -35 0 -10 3 -2
5 17 5 19 0 27 -2 18 -5z"/>
<path d="M10230 4088 c0 -25 -47 -114 -88 -168 -23 -30 -44 -66 -47 -80 -10
-42 -38 -69 -95 -90 -30 -11 -57 -20 -60 -20 -12 0 -59 48 -82 85 -42 67 -54
73 -83 39 -14 -16 -28 -39 -31 -52 -10 -35 6 -95 31 -122 13 -14 35 -55 50
-92 31 -77 68 -108 131 -108 75 0 128 60 219 253 26 54 41 77 51 73 12 -4 14
21 14 144 0 83 -2 150 -5 150 -3 0 -5 -6 -5 -12z"/>
<path d="M170 3811 c0 -47 4 -60 18 -66 16 -6 16 -7 0 -16 -21 -12 -23 -40 -6
-57 7 -7 38 -12 70 -12 57 0 58 0 58 29 0 16 -6 31 -12 33 -10 4 -10 10 -1 31
21 45 6 83 -38 101 -22 9 -51 16 -64 16 -24 0 -25 -3 -25 -59z m105 -11 c8
-13 -13 -40 -30 -40 -15 0 -28 27 -19 41 7 12 41 11 49 -1z m-38 -66 c-3 -3
-12 -4 -19 -1 -8 3 -5 6 6 6 11 1 17 -2 13 -5z"/>
<path d="M66 3842 c-3 -5 -18 -7 -33 -5 l-28 5 0 -96 c0 -100 6 -113 38 -75
17 19 20 20 36 5 31 -28 53 -21 50 17 -1 17 1 39 5 49 4 9 6 31 4 50 -2 25 -8
33 -22 33 -11 0 -21 6 -24 13 -4 14 -18 16 -26 4z m14 -93 c0 -15 -5 -31 -11
-34 -14 -9 -15 -7 -23 49 -6 49 -6 49 14 31 11 -10 20 -31 20 -46z"/>
<path d="M364 3830 c-12 -5 -24 -20 -28 -35 -9 -34 3 -95 22 -117 17 -20 62
-24 80 -6 8 8 15 8 24 1 7 -6 58 -10 113 -9 83 1 100 4 103 17 2 11 -7 19 -30
24 l-33 7 29 9 c17 5 34 4 41 -1 14 -11 40 4 31 19 -4 6 -14 11 -22 11 -8 0
-14 3 -14 8 0 15 20 37 32 37 7 0 13 7 13 15 0 18 -62 27 -78 11 -7 -7 -16 -7
-29 0 -10 6 -36 9 -56 7 l-37 -3 -3 -73 c-4 -96 -26 -95 -30 1 l-3 66 -37 11
c-43 12 -59 12 -88 0z m56 -80 c0 -27 -4 -50 -10 -50 -11 0 -14 83 -3 93 12
12 13 8 13 -43z m156 2 c-11 -10 -15 4 -8 28 l7 25 3 -23 c2 -13 1 -26 -2 -30z"/>
<path d="M790 3833 c-53 -20 -68 -88 -29 -137 28 -35 57 -46 100 -37 39 8 79
59 79 102 0 55 -85 96 -150 72z m89 -46 c16 -20 4 -26 -37 -20 -44 7 -46 8
-37 22 9 15 60 14 74 -2z m1 -62 c-14 -17 -70 -21 -70 -5 0 5 12 12 28 16 15
3 32 7 37 9 17 4 19 -4 5 -20z"/>
<path d="M960 3814 c0 -15 5 -55 12 -90 11 -60 13 -64 38 -64 l28 0 -14 62
c-11 56 -11 79 0 67 2 -2 15 -31 29 -64 20 -48 30 -61 50 -63 22 -3 29 5 58
68 18 39 39 75 48 80 22 12 13 18 -39 22 -44 3 -44 3 -60 -40 l-16 -43 -20 43
c-18 41 -21 43 -66 46 -46 3 -48 2 -48 -24z"/>
<path d="M32 3190 c-12 -12 -22 -27 -22 -35 0 -7 -3 -22 -6 -32 -3 -10 5 -2
18 17 l23 35 3 -65 c3 -67 11 -80 51 -80 17 0 22 4 17 16 -3 9 -6 43 -6 75 0
36 -4 58 -9 54 -6 -3 -15 4 -21 15 -13 25 -21 25 -48 0z"/>
<path d="M726 3175 c-12 -19 -14 -30 -6 -44 5 -11 10 -38 10 -60 l0 -41 65 0
65 0 0 34 c0 19 -4 38 -10 41 -16 10 -12 35 5 29 11 -5 15 1 15 20 0 19 -5 26
-19 26 -11 0 -23 5 -26 10 -3 6 -23 10 -44 10 -30 0 -42 -6 -55 -25z m98 -31
c4 -10 1 -14 -6 -12 -15 5 -23 28 -10 28 5 0 13 -7 16 -16z m-20 -72 c-15 -4
-46 22 -37 31 3 4 16 -2 28 -11 17 -12 19 -18 9 -20z"/>
<path d="M257 3175 c-13 -12 -20 -13 -35 -4 -11 7 -33 9 -55 5 -28 -5 -37 -12
-41 -34 -8 -42 0 -93 15 -103 20 -13 93 -11 107 3 9 9 16 7 31 -6 18 -17 19
-16 28 11 l10 28 12 -23 c16 -30 5 -45 -31 -40 -33 5 -44 -4 -23 -22 23 -19
70 -9 73 18 2 12 8 22 13 22 5 0 9 10 9 22 l0 22 21 -23 c26 -28 73 -26 75 4
1 11 2 26 3 33 2 29 21 9 21 -24 0 -31 3 -35 23 -32 19 3 22 9 21 46 0 29 3
42 13 42 7 0 13 -10 13 -22 0 -47 12 -68 36 -68 20 0 24 5 24 31 0 33 15 69
29 69 5 0 4 -14 -2 -30 -15 -40 0 -65 39 -65 24 0 30 5 32 28 2 15 -1 27 -7
27 -6 0 -11 -7 -11 -15 0 -8 -7 -15 -15 -15 -19 0 -19 2 5 45 20 35 20 35 0
55 -24 24 -48 26 -57 3 -5 -14 -8 -13 -15 6 -11 31 -50 25 -59 -9 -4 -14 -7
-20 -8 -13 -2 24 -33 43 -71 43 -21 0 -41 -4 -44 -9 -3 -5 -16 -7 -27 -4 -20
6 -21 3 -15 -31 5 -26 3 -41 -8 -51 -18 -18 -22 -12 -25 40 -2 46 -15 65 -33
47 -8 -8 -8 -15 2 -27 7 -8 10 -18 7 -21 -12 -12 -35 5 -39 27 -4 29 -21 34
-41 14z m233 -25 c0 -5 -2 -10 -4 -10 -3 0 -8 5 -11 10 -3 6 -1 10 4 10 6 0
11 -4 11 -10z m-50 -10 c0 -5 -4 -10 -10 -10 -5 0 -10 5 -10 10 0 6 5 10 10
10 6 0 10 -4 10 -10z m-190 -37 c0 -7 -9 -17 -20 -23 -26 -14 -45 -4 -30 15 8
10 8 14 -1 17 -7 2 -9 9 -6 15 9 14 57 -6 57 -24z"/>
<path d="M157 3014 c-4 -4 -7 -11 -7 -16 0 -13 50 -6 53 7 2 12 -36 19 -46 9z"/>
<path d="M3603 1341 c-52 -13 -61 -32 -62 -131 -1 -139 27 -175 135 -175 l49
0 8 68 c10 84 2 97 -62 98 l-46 0 57 22 c32 12 58 25 58 30 0 4 0 12 0 17 0 6
-17 11 -37 11 -34 2 -35 2 -8 6 16 3 35 12 41 21 23 31 29 1 27 -128 -2 -89 1
-131 9 -136 18 -11 152 -4 165 9 20 20 0 36 -47 39 -43 3 -45 4 -48 38 -2 19
-8 41 -14 47 -7 9 -7 13 1 13 7 0 11 20 11 49 0 55 5 59 75 63 46 2 61 17 36
35 -18 12 -300 15 -348 4z m35 -46 c0 -25 -5 -35 -15 -35 -11 0 -14 6 -9 23 3
12 6 28 6 35 0 6 4 12 9 12 5 0 9 -16 9 -35z m-20 -105 c17 -11 32 -26 32 -34
0 -8 6 -16 13 -19 6 -2 9 -8 5 -12 -12 -12 -63 11 -67 30 -2 10 -13 27 -25 36
-30 26 -1 25 42 -1z"/>
<path d="M3043 1330 c-13 -5 -23 -15 -23 -21 0 -8 -4 -8 -14 0 -18 15 -51 -4
-84 -48 -28 -38 -27 -39 3 -51 28 -10 32 -31 11 -49 -11 -9 -12 -6 -8 15 3 19
1 25 -7 20 -6 -4 -11 -14 -11 -22 0 -8 -4 -14 -10 -14 -17 0 -12 -97 6 -114
20 -20 23 -20 75 3 31 14 49 17 67 10 18 -7 31 -5 50 7 22 14 24 21 18 63 -3
25 -7 79 -9 119 -4 87 -15 102 -64 82z m-6 -102 c-3 -8 -6 -5 -6 6 -1 11 2 17
5 13 3 -3 4 -12 1 -19z"/>
<path d="M3151 1299 c-12 -16 -23 -43 -23 -58 -1 -46 25 -153 40 -158 20 -8
49 25 56 63 4 19 11 34 15 34 5 0 7 15 6 33 -2 17 -3 46 -4 62 -1 22 -8 33
-28 43 -36 16 -36 16 -62 -19z"/>
<path d="M3381 1321 c-8 -5 -20 -7 -28 -4 -7 3 -26 0 -42 -7 -23 -9 -30 -20
-35 -53 -4 -23 -13 -60 -20 -82 -17 -50 -29 -175 -18 -175 5 0 18 10 29 23 35
38 143 201 143 215 0 7 4 11 9 7 13 -8 2 -78 -15 -91 -11 -9 -14 -62 -14 -268
l0 -258 -1695 4 c-1633 3 -1695 2 -1695 -15 0 -18 62 -18 1693 -16 l1692 2 7
-159 c4 -87 5 -165 2 -173 -6 -19 -122 -8 -192 19 -67 26 -114 27 -105 3 12
-34 38 -56 103 -86 51 -24 83 -31 148 -35 l82 -5 0 -49 c0 -31 4 -47 10 -43 6
4 9 25 8 48 l-3 42 66 11 c37 6 82 20 100 32 19 12 50 30 69 39 60 30 95 60
115 97 10 19 23 33 27 30 7 -5 12 10 9 28 0 5 4 7 10 5 13 -2 36 29 27 38 -3
3 -33 -13 -67 -35 -121 -81 -295 -160 -313 -142 -5 5 -7 82 -6 173 l3 164 263
0 c144 0 703 -1 1242 -3 l980 -2 0 -130 c0 -126 1 -130 21 -130 12 0 32 10 45
23 22 20 24 29 24 130 l0 107 827 -2 828 -3 0 -275 0 -275 45 0 45 0 3 277 2
278 1215 0 1215 0 0 20 0 21 -1210 -2 c-665 -2 -1212 -1 -1214 2 -2 2 -6 72
-7 156 -3 175 0 183 67 183 25 0 53 5 63 12 28 17 53 3 50 -29 -4 -57 0 -73
21 -73 22 0 24 11 21 100 -1 32 4 70 13 92 9 21 16 49 16 63 0 21 -5 25 -28
25 -38 0 -52 -17 -52 -61 0 -45 -5 -49 -75 -55 l-55 -4 0 29 c0 16 -6 32 -12
34 -7 3 -3 6 9 6 12 1 30 4 40 7 15 5 16 4 3 -6 -12 -9 -10 -10 10 -4 14 4 30
7 37 7 11 0 7 23 -8 43 -5 6 -49 12 -103 13 -122 2 -137 -9 -109 -85 4 -12
-54 -37 -67 -29 -4 3 -13 -2 -20 -10 -15 -18 3 -28 46 -23 29 3 29 2 25 -57
-1 -9 -11 -15 -25 -15 -26 0 -39 -20 -30 -45 9 -24 33 -18 40 10 7 29 26 23
23 -8 -1 -12 2 -30 6 -40 6 -14 -1 -228 -8 -233 -3 -2 -1607 -7 -1629 -5 -16
1 -18 15 -19 149 0 139 -10 296 -27 407 -6 40 -11 51 -28 53 -15 2 -24 -4 -29
-20 -4 -13 -9 -152 -12 -310 l-5 -287 -1234 -1 -1234 0 -1 52 c-1 29 -1 161
-2 293 -1 209 1 244 16 270 29 51 14 88 -21 53 -10 -10 -15 -10 -21 1 -5 8
-16 11 -24 8 -9 -3 -18 1 -21 9 -6 16 -15 17 -35 5z m-38 -45 c-3 -13 -16 -35
-29 -47 -29 -27 -32 -12 -4 24 11 14 20 33 20 42 0 9 4 14 9 11 4 -3 6 -17 4
-30z"/>
<path d="M2465 1303 c-33 -8 -37 -18 -46 -110 -5 -48 -14 -90 -19 -91 -18 -6
-70 -53 -70 -63 0 -10 129 -13 154 -3 10 4 17 27 22 75 4 38 9 69 13 69 19 -1
30 -21 37 -68 9 -69 35 -90 86 -69 18 7 51 12 72 9 44 -5 44 -14 4 98 -13 36
-33 84 -46 108 -22 41 -23 42 -76 42 -29 0 -66 2 -82 4 -16 2 -38 2 -49 -1z
m151 -150 c14 -18 19 -83 8 -83 -15 0 -33 37 -34 68 0 36 7 40 26 15z"/>
<path d="M3885 1253 c-5 -12 -9 -14 -12 -5 -10 27 -24 10 -21 -25 3 -32 7 -38
28 -41 17 -2 21 0 12 6 -11 7 -11 10 2 15 10 4 16 18 16 37 0 33 -14 40 -25
13z"/>
<path d="M7394 1171 c-89 -41 -115 -140 -58 -222 15 -23 38 -42 53 -45 14 -3
32 -7 39 -10 23 -7 92 28 107 55 l14 26 1 -28 c0 -42 22 -28 38 24 19 64 10
124 -24 161 -53 55 -108 67 -170 39z m98 -58 c20 -18 24 -75 8 -117 -14 -38
-43 -49 -84 -32 -38 16 -51 43 -42 90 12 66 76 98 118 59z"/>
<path d="M8293 1169 c-21 -13 -33 -29 -33 -43 0 -15 -9 -27 -25 -34 -21 -10
-25 -18 -25 -56 0 -36 6 -49 32 -75 52 -51 134 -65 178 -31 33 27 15 38 -51
32 -47 -4 -49 -4 -49 22 0 23 -4 26 -35 26 -19 0 -35 5 -35 10 0 6 10 10 21
10 12 0 37 17 56 37 26 30 36 35 42 24 5 -8 7 -21 4 -28 -4 -11 1 -14 23 -11
27 3 29 5 28 50 -1 79 -63 111 -131 67z m39 -61 c-7 -7 -12 -8 -12 -2 0 14 12
26 19 19 2 -3 -1 -11 -7 -17z"/>
<path d="M8114 1167 c-2 -7 -3 -67 -2 -133 l3 -119 27 -3 c22 -3 28 2 33 20
10 43 12 223 2 236 -13 16 -56 16 -63 -1z"/>
<path d="M7174 1160 c-23 -9 -39 -69 -50 -189 -6 -57 -5 -61 15 -61 17 0 22 8
27 41 6 36 9 40 33 37 20 -2 27 -9 29 -30 2 -20 10 -30 28 -34 14 -4 27 -4 31
-1 7 7 -23 148 -44 205 -16 43 -28 49 -69 32z m36 -104 c-14 -14 -24 0 -16 21
6 15 8 15 16 3 6 -9 5 -19 0 -24z"/>
<path d="M3860 1144 c0 -15 26 -19 34 -5 3 5 -3 11 -14 14 -13 3 -20 0 -20 -9z"/>
<path d="M3735 414 c-44 -51 -44 -53 0 -12 21 21 37 39 34 42 -2 2 -18 -11
-34 -30z"/>
<path d="M6129 335 c-3 -2 -30 -6 -60 -9 -30 -2 -90 -14 -134 -26 -147 -40
-190 -49 -232 -50 -24 0 -43 -4 -43 -10 0 -5 7 -10 16 -10 28 0 197 -62 251
-92 29 -16 55 -38 58 -48 8 -24 18 -27 115 -36 l83 -7 -6 29 c-3 16 -9 37 -12
46 -9 24 42 36 198 44 70 4 130 11 133 16 11 17 -25 43 -83 62 -79 25 -214 74
-235 86 -19 11 -42 13 -49 5z m77 -83 c63 -10 104 -26 104 -41 0 -12 -99 -29
-205 -36 l-91 -6 -36 35 c-21 20 -46 36 -58 36 -11 0 -20 4 -20 10 0 19 189
20 306 2z m-98 -138 c12 -8 22 -21 22 -27 0 -11 -12 -12 -87 -8 -32 1 -29 27
5 39 37 14 35 14 60 -4z"/>
<path d="M10080 80 l0 -80 80 0 80 0 0 80 0 80 -80 0 -80 0 0 -80z"/>
</g>
</svg>
